<?xml version="1.0" encoding="UTF-8"?>
<svg width="103px" height="18px" viewBox="0 0 103 18" version="1.1" xmlns="http://www.w3.org/2000/svg" xmlns:xlink="http://www.w3.org/1999/xlink">
    <title>Group</title>
    <g id="Page-1" stroke="none" stroke-width="1" fill="none" fill-rule="evenodd">
        <g id="Group" fill-rule="nonzero">
            <path d="M9,0 C17.467,0 21.7,3 21.7,9 C21.7,15 17.467,18 9,18 L0,18 L0,0 L9,0 Z M9.806,3.5 L4,3.5 L4,14.5 L9.806,14.5 C15.27,14.172 18,12.338 18,9 C18,5.662 15.269,3.828 9.806,3.5 Z" id="Combined-Shape" fill="#CDCED5"></path>
            <path d="M42.75,0 C45.926,0 48.5,2.574 48.5,5.75 C48.5,8.926 45.926,11.5 42.75,11.5 L41.571,11.5 L49,18 L43.5,18 L36.071,11.5 L31.5,11.5 L31.5,18 L27.5,18 L27.5,0 L42.75,0 Z M42.25,3.5 L31.5,3.5 L31.5,8 L42.25,8 C43.493,8 44.5,6.993 44.5,5.75 C44.5,4.507 43.493,3.5 42.25,3.5 Z" id="Combined-Shape" fill="#CDCED5"></path>
            <path d="M67,0 L77,18 L72.5,18 L70.556,14.5 L58.944,14.5 L57,18 L52.5,18 L62.5,0 L67,0 Z M64.75,4.05 L61.167,10.5 L68.333,10.5 L64.75,4.05 Z" id="Combined-Shape" fill="#CDCED5"></path>
            <path d="M95.25,10.459 L103,18 L98,18 L92.75,12.892 L95.25,10.459 Z M84.5,0 L93.75,9 L91.25,11.432 L84.5,18 L79.5,18 L88.75,9 L79.5,0 L84.5,0 Z" id="Shape" fill="#CDCED5"></path>
            <polygon id="Path" fill="#E9E9E9" points="103 0 95.25 7.541 92.75 5.108 98 0"></polygon>
        </g>
    </g>
</svg>